<svg width="26" height="28" viewBox="0 0 26 28" fill="none" xmlns="http://www.w3.org/2000/svg">
<path d="M1.99414 8.6439C1.99414 4.88262 1.99414 3.00199 3.32955 1.83352C4.66494 0.665039 6.81423 0.665039 11.1128 0.665039H14.1525C18.4509 0.665039 20.6003 0.665039 21.9357 1.83352C23.2711 3.00199 23.2711 4.88262 23.2711 8.6439V20.6122H1.99414V8.6439Z" stroke="#A5A5A5" stroke-width="1.32981" stroke-linejoin="round"/>
<path d="M0.664062 20.6123H24.6006" stroke="#A5A5A5" stroke-width="1.32981" stroke-linecap="round"/>
<path d="M10.9016 5.40743C12.5375 5.17298 15.2483 5.26677 13.0048 7.51755C10.2005 10.331 5.99412 16.6616 10.9016 14.5515C15.8091 12.4415 17.9126 13.8482 15.8094 15.9583" stroke="#A5A5A5" stroke-width="1.32981" stroke-linecap="round" stroke-linejoin="round"/>
<path d="M12.6328 20.6123V25.9315" stroke="#A5A5A5" stroke-width="1.32981" stroke-linecap="round"/>
<path d="M3.32422 27.2614L7.31365 20.6123" stroke="#A5A5A5" stroke-width="1.32981" stroke-linecap="round"/>
<path d="M21.9406 27.2614L17.9512 20.6123" stroke="#A5A5A5" stroke-width="1.32981" stroke-linecap="round"/>
</svg>
