<svg width="27" height="27" viewBox="0 0 27 27" fill="none" xmlns="http://www.w3.org/2000/svg">
<path d="M13.2332 12.578C13.8852 12.578 14.4914 12.3168 15.7036 11.7944L16.5784 11.4174C18.7343 10.4885 19.8122 10.024 19.8122 9.2885C19.8122 8.55294 18.7343 8.08847 16.5784 7.15951L15.7036 6.78256C14.4914 6.26021 13.8852 5.99902 13.2332 5.99902C12.5813 5.99902 11.9751 6.26021 10.7629 6.78256L9.88809 7.15951C7.73223 8.08847 6.6543 8.55294 6.6543 9.2885C6.6543 10.024 7.73223 10.4885 9.88809 11.4174L10.7629 11.7944C11.9751 12.3168 12.5813 12.578 13.2332 12.578ZM13.2332 12.578V20.4727" stroke="#A5A5A5" stroke-width="1.47059" stroke-linejoin="round"/>
<path d="M19.8122 9.28809V17.1828C19.8122 17.9183 18.7343 18.3828 16.5784 19.3118L15.7036 19.6887C14.4914 20.2111 13.8852 20.4723 13.2332 20.4723C12.5813 20.4723 11.9751 20.2111 10.7629 19.6887L9.88809 19.3118C7.73223 18.3828 6.6543 17.9183 6.6543 17.1828V9.28809" stroke="#A5A5A5" stroke-width="1.47059" stroke-linejoin="round"/>
<path d="M9.47682 0.735352C5.98074 0.815286 3.9387 1.14925 2.54349 2.54447C1.14827 3.93968 0.814309 5.98172 0.734375 9.4778M16.9919 0.735352C20.4881 0.815286 22.53 1.14925 23.9253 2.54447C25.3204 3.93968 25.6544 5.98172 25.7344 9.4778M16.9919 25.7354C20.4881 25.6554 22.53 25.3214 23.9253 23.9263C25.3204 22.531 25.6544 20.489 25.7344 16.9929M9.47682 25.7354C5.98074 25.6554 3.9387 25.3214 2.54349 23.9263C1.14827 22.531 0.814309 20.489 0.734375 16.9929" stroke="#A5A5A5" stroke-width="1.47059" stroke-linecap="round" stroke-linejoin="round"/>
</svg>
