<svg width="30" height="29" viewBox="0 0 30 29" fill="none" xmlns="http://www.w3.org/2000/svg">
<path d="M0.777344 11.9859C0.777344 10.906 0.7962 9.85194 0.832107 8.83417C0.949407 5.50907 1.00807 3.84651 2.36051 2.4839C3.71295 1.12129 5.42245 1.04814 8.84145 0.90187C10.7173 0.82161 12.7146 0.77832 14.7868 0.77832C16.8589 0.77832 18.8562 0.82161 20.7321 0.90187C24.1511 1.04814 25.8607 1.12129 27.213 2.4839C28.5655 3.84651 28.6242 5.50907 28.7414 8.83417C28.7773 9.85194 28.7962 10.906 28.7962 11.9859C28.7962 13.0657 28.7773 14.1198 28.7414 15.1376C28.6242 18.4627 28.5655 20.1252 27.213 21.4879C25.8607 22.8505 24.1511 22.9236 20.732 23.0699C19.7038 23.1138 18.6391 23.1468 17.5457 23.1675C16.5074 23.1871 15.9882 23.1971 15.5321 23.3708C15.0759 23.5445 14.6922 23.8736 13.9245 24.5317L10.8712 27.15C10.6858 27.3088 10.4497 27.3962 10.2056 27.3962C9.64082 27.3962 9.183 26.9384 9.183 26.3737V23.084C9.06872 23.0794 8.95486 23.0748 8.84144 23.0699C5.42244 22.9236 3.71295 22.8505 2.36051 21.4878C1.00807 20.1252 0.949407 18.4627 0.832107 15.1376C0.7962 14.1198 0.777344 13.0657 0.777344 11.9859Z" stroke="#A5A5A5" stroke-width="1.5566" stroke-linecap="round" stroke-linejoin="round"/>
<path d="M21.7907 11.9855C21.7907 11.9855 18.93 16.1884 14.786 16.1884C10.6419 16.1884 7.78125 11.9855 7.78125 11.9855C7.78125 11.9855 10.5831 7.78271 14.786 7.78271C18.9888 7.78271 21.7907 11.9855 21.7907 11.9855Z" stroke="#A5A5A5" stroke-width="1.5566" stroke-linecap="round" stroke-linejoin="round"/>
<path d="M14.7754 11.9854H14.7859" stroke="#A5A5A5" stroke-width="1.5566" stroke-linecap="round" stroke-linejoin="round"/>
</svg>
