<svg width="31" height="31" viewBox="0 0 31 31" fill="none" xmlns="http://www.w3.org/2000/svg">
<path d="M19.3267 13.2649C19.3267 15.6269 17.412 17.5415 15.05 17.5415C12.6881 17.5415 10.7734 15.6269 10.7734 13.2649C10.7734 10.903 12.6881 8.98828 15.05 8.98828C17.412 8.98828 19.3267 10.903 19.3267 13.2649Z" stroke="#A5A5A5" stroke-width="1.58393"/>
<path d="M26.5486 7.19533L25.9352 6.12687C25.4713 5.3188 25.2392 4.91476 24.8446 4.75365C24.4499 4.59253 24.0036 4.71966 23.1109 4.97393L21.5944 5.40264C21.0245 5.53455 20.4265 5.45973 19.906 5.19136L19.4874 4.9489C19.0411 4.66203 18.6978 4.23906 18.5078 3.74187L18.0928 2.49779C17.82 1.67451 17.6836 1.26289 17.3587 1.02743C17.0338 0.791992 16.6024 0.791992 15.7394 0.791992H14.3541C13.4911 0.791992 13.0597 0.791992 12.7348 1.02743C12.4099 1.26289 12.2735 1.67451 12.0007 2.49779L11.5856 3.74187C11.3956 4.23906 11.0524 4.66203 10.6061 4.9489L10.1875 5.19136C9.66707 5.45973 9.0691 5.53455 8.49917 5.40264L6.98268 4.97393C6.08995 4.71966 5.64359 4.59253 5.24891 4.75365C4.85424 4.91476 4.62229 5.3188 4.15836 6.12687L3.54494 7.19533C3.1101 7.95279 2.89266 8.33152 2.93485 8.73469C2.97706 9.13784 3.26813 9.46274 3.85029 10.1125L5.13164 11.5504C5.44481 11.9483 5.66715 12.6418 5.66715 13.2653C5.66715 13.8891 5.44488 14.5824 5.13168 14.9804L3.85029 16.4183C3.26814 17.0681 2.97706 17.3929 2.93487 17.7961C2.89266 18.1992 3.1101 18.578 3.54496 19.3354L4.15835 20.4038C4.62226 21.212 4.85424 21.616 5.24891 21.7772C5.6436 21.9383 6.08997 21.8111 6.98271 21.5568L8.49911 21.1281C9.06915 20.9961 9.66722 21.071 10.1877 21.3395L10.6063 21.582C11.0525 21.8688 11.3956 22.2918 11.5856 22.7889L12.0007 24.0331C12.2735 24.8563 12.4099 25.268 12.7348 25.5034C13.0597 25.7389 13.4911 25.7389 14.3541 25.7389H15.7394C16.6024 25.7389 17.0338 25.7389 17.3587 25.5034C17.6836 25.268 17.82 24.8563 18.0928 24.0331L18.508 22.7889C18.6978 22.2918 19.0411 21.8688 19.4872 21.582L19.9058 21.3395C20.4263 21.071 21.0243 20.9961 21.5944 21.1281L23.1109 21.5568C24.0036 21.8111 24.4499 21.9383 24.8446 21.7772C25.2393 21.616 25.4713 21.212 25.9352 20.4038L26.5486 19.3354C26.9835 18.578 27.2009 18.1992 27.1587 17.7961C27.1165 17.3929 26.8254 17.0681 26.2432 16.4183L24.9618 14.9804C24.6486 14.5824 24.4264 13.8891 24.4264 13.2653C24.4264 12.6418 24.6487 11.9483 24.9619 11.5504L26.2432 10.1125C26.8254 9.46274 27.1165 9.13784 27.1587 8.73469C27.2009 8.33152 26.9835 7.95279 26.5486 7.19533Z" stroke="#A5A5A5" stroke-width="1.58393" stroke-linecap="round"/>
<path d="M29.3037 23.6006C29.3037 24.9263 29.3037 25.5892 29.158 26.1331C28.7626 27.6088 27.6097 28.7616 26.134 29.157C25.5902 29.3027 24.9273 29.3027 23.6016 29.3027H6.49512C5.16941 29.3027 4.50655 29.3027 3.96271 29.157C2.48689 28.7616 1.33413 27.6088 0.938687 26.1331C0.792969 25.5892 0.792969 24.9263 0.792969 23.6006" stroke="#A5A5A5" stroke-width="1.58393" stroke-linecap="round"/>
</svg>
