<svg width="26" height="29" viewBox="0 0 26 29" fill="none" xmlns="http://www.w3.org/2000/svg">
<path d="M12.6015 14.3997C14.0258 15.8238 15.9016 17.2711 15.9016 17.2711L18.4729 14.6996C18.4729 14.6996 17.0257 12.8238 15.6016 11.3996C14.1774 9.97543 12.3015 8.52818 12.3015 8.52818L9.73014 11.0996C9.73014 11.0996 11.1774 12.9754 12.6015 14.3997ZM12.6015 14.3997L8.10156 18.8996M18.9016 14.271L15.473 17.6996M12.7302 8.09961L9.30156 11.5282" stroke="#A5A5A5" stroke-width="1.35" stroke-linecap="round" stroke-linejoin="round"/>
<path d="M24.9758 13.0723V9.1532C24.9758 6.9392 24.9758 5.83218 24.4302 5.10995C23.8847 4.3877 22.6512 4.03706 20.1842 3.33579C18.4988 2.85667 17.0129 2.27946 15.8259 1.7525C14.2074 1.03404 13.3982 0.674805 12.8258 0.674805C12.2534 0.674805 11.4442 1.03404 9.82569 1.7525C8.63861 2.27946 7.15287 2.85666 5.46738 3.33579C3.00039 4.03706 1.76688 4.3877 1.22133 5.10995C0.675781 5.83218 0.675781 6.9392 0.675781 9.1532V13.0723C0.675781 20.6663 7.51052 25.2225 10.9277 27.026C11.7473 27.4585 12.157 27.6748 12.8258 27.6748C13.4946 27.6748 13.9043 27.4585 14.7239 27.026C18.141 25.2225 24.9758 20.6663 24.9758 13.0723Z" stroke="#A5A5A5" stroke-width="1.35" stroke-linecap="round"/>
</svg>
