<svg width="24" height="24" viewBox="0 0 24 24" fill="none" xmlns="http://www.w3.org/2000/svg">
<path d="M9.81404 1.17118L3.44559 3.85262C2.07147 4.4312 1.38442 4.72049 0.997868 5.30265C0.611328 5.88482 0.611328 6.6303 0.611328 8.12126V22.6113H4.08501V11.0324C4.08501 9.94072 4.08501 9.39489 4.42415 9.05573C4.7633 8.71659 5.30913 8.71659 6.4008 8.71659H16.8219C17.9135 8.71659 18.4593 8.71659 18.7985 9.05573C19.1376 9.39489 19.1376 9.94072 19.1376 11.0324V22.6113H22.6113V8.12126C22.6113 6.6303 22.6113 5.88482 22.2248 5.30265C21.8382 4.72049 21.1512 4.4312 19.777 3.85262L13.4086 1.17118C12.5222 0.797946 12.079 0.611328 11.6113 0.611328C11.1437 0.611328 10.7004 0.797946 9.81404 1.17118Z" stroke="#A5A5A5" stroke-width="1.22222" stroke-linecap="round" stroke-linejoin="round"/>
<path d="M10.4531 5.24316H12.7689" stroke="#A5A5A5" stroke-width="1.22222" stroke-linecap="round" stroke-linejoin="round"/>
<path d="M12.7703 15.6641H10.4545C9.3628 15.6641 8.81695 15.6641 8.47781 16.0032C8.13867 16.3424 8.13867 16.8882 8.13867 17.9799V20.2956C8.13867 21.3873 8.13867 21.9331 8.47781 22.2723C8.81695 22.6114 9.3628 22.6114 10.4545 22.6114H12.7703C13.8619 22.6114 14.4077 22.6114 14.7469 22.2723C15.086 21.9331 15.086 21.3873 15.086 20.2956V17.9799C15.086 16.8882 15.086 16.3424 14.7469 16.0032C14.4077 15.6641 13.8619 15.6641 12.7703 15.6641Z" stroke="#A5A5A5" stroke-width="1.22222" stroke-linecap="round" stroke-linejoin="round"/>
</svg>
