<svg width="107" height="71" viewBox="0 0 107 71" fill="none" xmlns="http://www.w3.org/2000/svg">
<path d="M46.5651 4.79079C46.7358 5.32717 46.7327 5.99156 46.5559 6.78395C46.495 7.04605 46.2999 7.78053 45.9708 8.9874L44.7365 13.568C44.6877 13.7387 44.5841 13.8423 44.4256 13.8789C44.2672 13.9094 44.1239 13.8697 43.9959 13.76C43.874 13.6442 43.8374 13.501 43.8862 13.3303C44.3982 11.4164 44.7822 9.98398 45.0382 9.03311C45.087 8.86245 45.1784 8.53025 45.3125 8.03653C45.4527 7.53672 45.5563 7.14967 45.6234 6.87538C45.6904 6.61328 45.7392 6.39385 45.7696 6.21709C45.8062 6.03423 45.8215 5.82089 45.8154 5.57708C45.8093 5.32717 45.7636 5.10469 45.6782 4.90964C45.3795 4.20868 44.6816 3.88868 43.5845 3.94963C43.2553 3.96792 42.7677 4.06849 42.1216 4.25135C41.4207 4.4525 40.7746 4.65669 40.1833 4.86393C38.8667 5.32717 37.5745 5.86356 36.3067 6.47309C35.3436 6.93024 34.3928 7.41481 33.4541 7.92682C32.5154 8.43273 31.4518 9.05445 30.2632 9.79198C29.0746 10.5234 28.2152 11.0568 27.6849 11.392C27.1546 11.7272 26.1641 12.3642 24.7134 13.3029C22.8909 14.4793 21.3519 15.488 20.0962 16.3292C19.8707 16.957 19.5385 17.8987 19.0997 19.1544C18.2037 21.7083 16.8718 25.5453 15.1042 30.6653C14.135 33.4753 13.5499 35.1698 13.3488 35.7488C15.409 35.8037 17.8837 35.8037 20.7728 35.7488C24.3995 35.6818 28.3584 35.5141 32.6495 35.2459C36.2945 35.0143 39.717 34.7309 42.917 34.3957C43.0938 34.3774 43.2188 34.4383 43.2919 34.5785C43.3651 34.7187 43.3651 34.865 43.2919 35.0174C43.2188 35.1759 43.0938 35.2642 42.917 35.2825C42.3563 35.3435 41.5913 35.4197 40.6222 35.5111C36.965 35.8524 33.2164 36.1206 29.3763 36.3157C24.7744 36.5534 20.6966 36.6722 17.1431 36.6722C15.5522 36.6722 14.1838 36.657 13.0379 36.6265C12.6234 37.8212 12.1236 39.2353 11.5384 40.8689C11.5019 40.9725 11.3708 41.3352 11.1453 41.9569C10.9198 42.5847 10.7735 42.99 10.7064 43.1729C10.6394 43.3557 10.5083 43.7062 10.3133 44.2243C10.1243 44.7424 9.975 45.1417 9.86529 45.4221C9.75557 45.7085 9.61538 46.056 9.44471 46.4643C9.28014 46.8788 9.11861 47.2628 8.96013 47.6164C8.91137 47.7261 8.81994 47.7931 8.68585 47.8175C8.55785 47.8419 8.44813 47.8266 8.3567 47.7718C8.10679 47.6438 7.92698 47.4609 7.81727 47.2232C7.70755 46.9855 7.66793 46.7234 7.69841 46.4369C7.71669 46.2845 7.78984 46.1687 7.91784 46.0895C8.05194 46.0102 8.18603 45.9889 8.32013 46.0255C8.46032 46.0621 8.54565 46.1443 8.57613 46.2723C9.08814 45.0228 9.94148 42.7188 11.1362 39.3603C11.3556 38.7507 11.6786 37.8304 12.1053 36.5991C10.1609 36.526 8.39022 36.4041 6.79326 36.2334C5.28162 36.0688 4.04428 35.8585 3.08122 35.6025C2.5814 35.4745 2.14254 35.3343 1.76463 35.1819C1.39282 35.0296 1.06063 34.8284 0.768052 34.5785C0.487669 34.3469 0.301762 34.0665 0.210332 33.7374C0.124998 33.4143 0.10976 33.0974 0.164618 32.7865C0.225571 32.4756 0.341381 32.1373 0.51205 31.7716C0.688813 31.4059 0.862529 31.095 1.0332 30.839C1.20387 30.5891 1.39282 30.327 1.60006 30.0528C2.20959 29.2604 2.94103 28.4466 3.79437 27.6116C4.64771 26.7704 5.40353 26.0756 6.06182 25.527C6.72621 24.9784 7.5826 24.2896 8.63099 23.4607C11.2824 21.37 14.4703 19.066 18.1945 16.5486C18.3225 16.4572 18.5145 16.3261 18.7705 16.1555C19.0326 15.9787 19.2307 15.8477 19.3648 15.7623C20.5778 12.3429 21.6445 9.44759 22.5648 7.07652C23.5645 4.48602 24.3599 2.57819 24.9512 1.35304C24.9572 1.32865 24.9725 1.28599 24.9969 1.22503C25.1432 0.926365 25.3138 0.600267 25.5089 0.246739C25.5637 0.149214 25.6338 0.0852138 25.7192 0.0547373C25.8106 0.0181655 25.8959 0.0151179 25.9752 0.0455943C26.0544 0.0699755 26.1275 0.112643 26.1946 0.173596C26.2677 0.234549 26.3104 0.313788 26.3226 0.411312C26.3409 0.502742 26.3256 0.597219 26.2769 0.694744C26.1428 0.950746 26.0422 1.1458 25.9752 1.27989C25.6094 2.01133 25.2285 2.84334 24.8323 3.77592C24.4422 4.7024 24.1344 5.45517 23.9089 6.03423C23.6833 6.61328 23.3572 7.46662 22.9306 8.59425C22.2601 10.3619 21.4829 12.477 20.5991 14.9395C21.9157 14.0678 23.9028 12.7787 26.5603 11.072C27.9439 10.1882 29.1386 9.4415 30.1443 8.83197C31.1562 8.22244 32.3143 7.5611 33.6187 6.84795C34.9231 6.1348 36.2153 5.50698 37.4953 4.9645C38.7753 4.41592 40.0492 3.94963 41.317 3.56563C41.5365 3.49858 41.7102 3.44677 41.8382 3.4102C41.9723 3.37363 42.1399 3.33096 42.341 3.2822C42.5483 3.22734 42.7281 3.18772 42.8805 3.16334C43.0329 3.13896 43.2035 3.11763 43.3925 3.09934C43.5814 3.07496 43.7643 3.06582 43.9411 3.07191C44.1178 3.07801 44.2946 3.09324 44.4713 3.11763C44.9712 3.19077 45.407 3.37363 45.7788 3.6662C46.1506 3.95268 46.4127 4.32754 46.5651 4.79079ZM18.8071 17.3258C18.8132 17.3075 18.8223 17.2801 18.8345 17.2435C18.8528 17.2069 18.865 17.1795 18.8711 17.1612C17.5179 18.0755 16.5092 18.7643 15.8448 19.2275C12.2242 21.7571 9.24357 24.0154 6.90297 26.0024C5.58029 27.1179 4.44352 28.1815 3.49265 29.1933C2.53569 30.2051 1.84387 31.1225 1.4172 31.9453C1.23434 32.2989 1.11244 32.6524 1.05148 33.0059C1.03929 33.1095 1.0332 33.1766 1.0332 33.2071C1.0332 33.2985 1.03625 33.3686 1.04234 33.4174C1.05453 33.4844 1.06367 33.5332 1.06977 33.5636C1.06977 33.5697 1.06977 33.5728 1.06977 33.5728C1.07586 33.5728 1.07891 33.5758 1.07891 33.5819C1.07891 33.588 1.08501 33.5972 1.0972 33.6094C1.20691 33.7861 1.3532 33.9324 1.53606 34.0482C1.65797 34.1275 1.8073 34.2097 1.98406 34.2951C2.00235 34.3073 2.05111 34.3286 2.13035 34.3591C2.13035 34.3591 2.1334 34.3652 2.13949 34.3774L2.17607 34.3865L2.47778 34.4962C3.26408 34.7705 4.29114 35.0021 5.55896 35.1911C6.78411 35.374 8.21346 35.5111 9.847 35.6025C10.6028 35.6513 11.4592 35.6909 12.4162 35.7214C12.6539 35.0387 12.9038 34.3134 13.1659 33.5454C13.4341 32.7834 13.7297 31.9362 14.0528 31.0036C14.3758 30.071 14.6257 29.3487 14.8025 28.8367C16.5701 23.7167 17.905 19.8797 18.8071 17.3258ZM58.3686 23.8447C58.6307 24.1556 58.7923 24.5121 58.8532 24.9144C58.9142 25.3167 58.905 25.6885 58.8258 26.0299C58.7526 26.3712 58.6307 26.7491 58.4601 27.1636C58.3686 27.383 58.2315 27.6847 58.0486 28.0687C57.8658 28.4466 57.7103 28.7758 57.5823 29.0562C57.4604 29.3427 57.3233 29.6748 57.1709 30.0528C57.0246 30.4368 56.918 30.7903 56.8509 31.1133C56.7839 31.4364 56.7412 31.7747 56.7229 32.1282C56.7046 32.4817 56.7412 32.8231 56.8326 33.1522C56.9301 33.4875 57.0825 33.8044 57.2898 34.1031C57.3934 34.2494 57.3995 34.3896 57.308 34.5237C57.2227 34.6638 57.1008 34.737 56.9423 34.7431C56.7899 34.7492 56.6528 34.6852 56.5309 34.5511C56.2383 34.1305 56.0433 33.6459 55.9458 33.0974C55.8543 32.5549 55.8421 32.0337 55.9092 31.5339C55.9762 31.0402 56.0981 30.5312 56.2749 30.007C56.4456 29.5072 56.7564 28.7758 57.2075 27.8127C57.2319 27.764 57.2959 27.6329 57.3995 27.4196C57.5031 27.2002 57.5732 27.0447 57.6098 26.9533C57.6463 26.8619 57.7012 26.7308 57.7743 26.5601C57.8475 26.3834 57.9023 26.2219 57.9389 26.0756C57.9755 25.9293 58.0029 25.783 58.0212 25.6367C58.0456 25.466 58.0425 25.3015 58.0121 25.143C57.9816 24.9845 57.942 24.8504 57.8932 24.7407C57.8505 24.6249 57.7682 24.5091 57.6463 24.3933C57.5244 24.2714 57.4239 24.1769 57.3446 24.1098C57.2654 24.0428 57.1343 23.9605 56.9515 23.863C56.7686 23.7655 56.6345 23.6984 56.5492 23.6618C56.4699 23.6253 56.3267 23.5613 56.1195 23.4698C55.9122 23.3784 55.7781 23.3205 55.7172 23.2961C55.4368 23.1742 55.1899 23.0462 54.9766 22.9121C54.3914 23.5582 53.8307 24.0885 53.2943 24.503C52.764 24.9175 52.1819 25.2192 51.548 25.4081C50.8348 25.6215 50.0546 25.6489 49.2074 25.4904C49.1769 25.4843 48.9941 25.4386 48.6588 25.3533C48.3236 25.2679 48.0645 25.2283 47.8817 25.2344C47.5647 25.2405 47.202 25.3076 46.7937 25.4356C46.5377 25.5148 46.1476 25.658 45.6234 25.8653C45.0992 26.0725 44.6938 26.2158 44.4073 26.295C44.194 26.356 44.0112 26.4017 43.8588 26.4321C43.7064 26.4626 43.5144 26.487 43.2828 26.5053C43.0572 26.5236 42.8561 26.5022 42.6793 26.4413C42.5026 26.3742 42.3593 26.2645 42.2496 26.1121C42.0485 25.8318 42.0546 25.463 42.2679 25.0058C42.469 24.567 42.6976 24.1616 42.9536 23.7898C43.5875 22.8633 44.2123 22.2142 44.8279 21.8424C45.2058 21.6108 45.6051 21.4858 46.0257 21.4675C46.4462 21.4492 46.8424 21.565 47.2142 21.815C47.5251 22.0527 47.7201 22.3696 47.7994 22.7658C47.8786 23.1559 47.8024 23.5125 47.5708 23.8355C47.4672 23.9757 47.3239 24.0367 47.1411 24.0184C46.9643 24.0001 46.8394 23.93 46.7662 23.8081C46.6992 23.6801 46.7114 23.5399 46.8028 23.3875C46.8942 23.2717 46.9369 23.1407 46.9308 22.9944C46.9308 22.8481 46.879 22.7171 46.7754 22.6013C46.5559 22.3635 46.239 22.2873 45.8245 22.3727C45.4771 22.4458 45.151 22.6226 44.8462 22.903C44.5475 23.1773 44.2458 23.5186 43.9411 23.927C43.6912 24.2622 43.4748 24.6005 43.2919 24.9418C43.1578 25.1796 43.0786 25.3289 43.0542 25.3898C43.0054 25.4874 42.978 25.5575 42.9719 25.6001C42.978 25.6001 43.0054 25.6062 43.0542 25.6184C43.1212 25.6306 43.1944 25.6367 43.2736 25.6367C43.3529 25.6367 43.426 25.6337 43.4931 25.6276C43.5662 25.6215 43.6485 25.6093 43.7399 25.591C43.8313 25.5666 43.9075 25.5453 43.9685 25.527C44.0355 25.5087 44.1178 25.4843 44.2153 25.4539C44.3129 25.4234 44.386 25.399 44.4348 25.3807C44.4896 25.3563 44.5658 25.3258 44.6634 25.2893C44.7609 25.2527 44.8279 25.2283 44.8645 25.2161C44.9742 25.1735 45.1723 25.0973 45.4588 24.9876C45.7453 24.8778 45.9586 24.7986 46.0988 24.7498C46.239 24.695 46.4371 24.631 46.6931 24.5578C46.9491 24.4786 47.1655 24.4268 47.3422 24.4024C47.5251 24.378 47.7323 24.3658 47.964 24.3658C48.1956 24.3658 48.4181 24.3872 48.6314 24.4298C48.6923 24.442 48.8264 24.4725 49.0337 24.5213C49.2409 24.57 49.372 24.6005 49.4268 24.6127C49.4817 24.6188 49.6127 24.6401 49.82 24.6767C50.0333 24.7072 50.1674 24.7163 50.2223 24.7041C50.2832 24.6919 50.4234 24.6858 50.6428 24.6858C51.1792 24.6371 51.7095 24.4573 52.2337 24.1464C52.8432 23.7929 53.5381 23.1864 54.3183 22.327L54.2086 22.1624C54.0562 21.9064 53.98 21.629 53.98 21.3304C53.98 21.0256 54.0562 20.7452 54.2086 20.4892C54.3671 20.2271 54.5835 20.0412 54.8577 19.9315C55.132 19.8218 55.4094 19.8401 55.6897 19.9864C55.8177 20.0656 55.9092 20.1662 55.964 20.2881C56.0189 20.41 56.0372 20.5532 56.0189 20.7178C56.0006 20.8824 55.9762 21.0226 55.9458 21.1384C55.9153 21.2542 55.8635 21.4066 55.7903 21.5955C55.7233 21.7845 55.6806 21.9094 55.6623 21.9704C55.6623 21.9826 55.6562 21.9978 55.644 22.0161C55.6318 22.0344 55.6257 22.0466 55.6257 22.0527C55.6257 22.1136 55.6075 22.1776 55.5709 22.2447C55.6318 22.2812 55.7233 22.33 55.8452 22.391C55.9915 22.4641 56.2078 22.5616 56.4943 22.6835C56.7869 22.8054 57.0216 22.9091 57.1983 22.9944C57.3812 23.0797 57.5854 23.1986 57.8109 23.351C58.0364 23.5034 58.2223 23.6679 58.3686 23.8447ZM54.9949 20.9007C54.9339 20.9799 54.8913 21.0866 54.8669 21.2207C54.8608 21.3121 54.8669 21.4035 54.8852 21.495C54.8974 21.4523 54.9156 21.3913 54.94 21.3121C54.9705 21.2268 54.9918 21.1628 55.004 21.1201C55.0467 20.9372 55.0711 20.8428 55.0772 20.8367L54.9949 20.9007ZM85.0386 24.3201C85.1727 24.2043 85.322 24.1769 85.4866 24.2378C85.6512 24.2988 85.7518 24.4024 85.7883 24.5487C85.8249 24.6889 85.7822 24.823 85.6603 24.951C84.7765 25.6946 83.7677 26.1304 82.634 26.2584C81.6588 26.3681 80.775 26.1518 79.9826 25.6093C79.9094 25.5605 79.7784 25.4691 79.5894 25.335C79.4066 25.1948 79.245 25.079 79.1048 24.9876C78.9707 24.8961 78.8366 24.8169 78.7026 24.7498C78.2454 24.5182 77.7395 24.4725 77.1848 24.6127C76.8374 24.698 76.4778 24.8535 76.106 25.079C75.7341 25.2984 75.4477 25.4904 75.2465 25.655C75.0515 25.8135 74.7528 26.0664 74.3505 26.4139C73.8446 26.8527 73.3844 27.2154 72.9699 27.5019C72.5554 27.7823 72.1135 28.0047 71.6442 28.1693C71.4857 28.2303 71.3455 28.1967 71.2236 28.0687C71.1017 27.9346 71.0621 27.7884 71.1048 27.6299C71.1474 27.4531 71.2023 27.2611 71.2693 27.0539C71.3364 26.8466 71.3943 26.6729 71.443 26.5327C71.4979 26.3864 71.568 26.1944 71.6533 25.9567C71.7387 25.719 71.8027 25.5422 71.8453 25.4264C71.9368 25.1643 72.1623 24.5457 72.5219 23.5704C71.6259 24.4786 70.7055 25.1156 69.7607 25.4813C69.1695 25.7129 68.5996 25.8104 68.051 25.7739C67.8011 25.7556 67.4141 25.6672 66.8899 25.5087C66.3657 25.3441 65.9542 25.2679 65.6556 25.2801C65.4361 25.2862 65.1923 25.3198 64.9241 25.3807C64.6559 25.4417 64.4548 25.4935 64.3207 25.5361C64.1866 25.5727 63.9397 25.658 63.5801 25.7921C63.2205 25.9201 63.0132 25.9933 62.9584 26.0116C62.3184 26.231 61.8216 26.3681 61.4681 26.423C60.9378 26.5144 60.5477 26.5236 60.2978 26.4504C59.4993 26.2188 59.4902 25.5239 60.2704 24.3658C60.7336 23.6771 61.337 22.9944 62.0807 22.3178C62.227 22.1837 62.3458 22.0831 62.4372 22.0161C62.6932 21.8332 62.9614 21.69 63.2418 21.5864C63.5283 21.4767 63.8331 21.4279 64.1561 21.4401C64.4792 21.4462 64.7687 21.5315 65.0247 21.6961C65.4087 21.9399 65.6251 22.2843 65.6738 22.7293C65.7287 23.1742 65.6098 23.5643 65.3173 23.8995C65.2015 24.0397 65.0643 24.0855 64.9058 24.0367C64.7535 23.9818 64.6529 23.8813 64.6041 23.735C64.5615 23.5826 64.5889 23.4302 64.6864 23.2778C64.7961 23.1437 64.8327 22.9913 64.7961 22.8207C64.7656 22.6439 64.6773 22.5129 64.531 22.4275C64.2079 22.2386 63.8087 22.263 63.3333 22.5007C62.7237 22.8054 62.0776 23.4119 61.3949 24.3201C61.1328 24.6615 60.9012 25.018 60.7001 25.3898C60.6208 25.5239 60.5812 25.6001 60.5812 25.6184H60.6178C60.6666 25.6123 60.7397 25.6093 60.8372 25.6093C60.9348 25.6093 61.0079 25.6062 61.0567 25.6001C61.2029 25.5819 61.3462 25.5605 61.4864 25.5361C61.6327 25.5057 61.7972 25.463 61.9801 25.4081C62.1691 25.3472 62.3062 25.3045 62.3915 25.2801C62.4769 25.2497 62.6384 25.1918 62.8761 25.1064C63.1138 25.0211 63.251 24.9723 63.2875 24.9601C64.1896 24.6432 64.9058 24.4603 65.4361 24.4116C65.8201 24.375 66.1919 24.3963 66.5516 24.4756C66.6857 24.506 66.8746 24.567 67.1184 24.6584C67.3622 24.7437 67.5451 24.8017 67.667 24.8321C68.4411 25.015 69.2884 24.8321 70.2088 24.2836C71.251 23.674 72.3086 22.6409 73.3814 21.1841C73.4667 21.0683 73.5855 21.0043 73.7379 20.9921C73.8964 20.9738 74.0305 21.0165 74.1402 21.1201C74.256 21.2237 74.2835 21.3578 74.2225 21.5224C73.3692 23.8264 72.8602 25.207 72.6956 25.6641C72.6469 25.8043 72.5707 26.0146 72.4671 26.295C72.3695 26.5754 72.2964 26.7857 72.2476 26.9259C72.4792 26.7857 72.7048 26.6302 72.9242 26.4596C73.1497 26.2889 73.4271 26.0603 73.7562 25.7739C74.0854 25.4813 74.2926 25.2984 74.3779 25.2253C75.4141 24.3658 76.3498 23.8599 77.1848 23.7075C77.6907 23.6161 78.1692 23.6466 78.6203 23.799C79.0713 23.9453 79.5346 24.1952 80.01 24.5487C80.5342 24.9327 80.9334 25.1704 81.2077 25.2618C81.5856 25.3898 82.0093 25.4325 82.4786 25.3898C83.4295 25.3167 84.2828 24.9601 85.0386 24.3201ZM35.7581 34.3337C35.6057 34.7482 35.0754 36.1836 34.1672 38.64C33.259 41.0965 32.5703 42.9799 32.1009 44.2904C31.8693 44.9365 31.6621 45.5247 31.4792 46.055C34.0088 46.0855 36.2823 46.1007 38.2999 46.1007C38.4766 46.1007 38.6016 46.1738 38.6747 46.3201C38.7479 46.4664 38.7479 46.6157 38.6747 46.7681C38.6016 46.9144 38.4766 46.9876 38.2999 46.9876C38.1109 46.9876 37.8244 46.9876 37.4404 46.9876C37.0625 46.9815 36.7791 46.9784 36.5901 46.9784C35.3772 46.9723 33.573 46.9571 31.1775 46.9327C30.1718 49.8402 29.3489 52.4276 28.7089 54.6951C28.2152 56.4383 27.8129 58.0322 27.502 59.4768C27.1973 60.9275 26.99 62.3538 26.8803 63.7557C26.8681 63.9325 26.7858 64.0574 26.6335 64.1306C26.4811 64.2037 26.3348 64.2037 26.1946 64.1306C26.0544 64.0574 25.9904 63.9325 26.0026 63.7557C26.0392 63.3047 26.0696 62.9816 26.094 62.7866C26.3805 60.257 27.0571 57.1728 28.1238 53.5339C28.6845 51.6139 29.3916 49.4104 30.2449 46.9236C27.7763 46.8931 25.3047 46.8839 22.83 46.8961C21.3915 46.9083 20.3187 46.9205 19.6117 46.9327C17.4539 49.2367 16.0154 50.7849 15.2962 51.5773C12.1266 55.0516 9.55443 58.078 7.57955 60.6563C5.01343 64.0148 2.91665 67.2819 1.2892 70.4575C1.21606 70.6038 1.08806 70.6769 0.905197 70.6769C0.722338 70.6769 0.597384 70.6038 0.530336 70.4575C0.445001 70.2807 0.390144 70.104 0.365763 69.9272C0.335286 69.7383 0.317 69.5402 0.310905 69.3329C0.30481 69.1318 0.313953 68.9154 0.338334 68.6838C0.362715 68.4522 0.387096 68.2571 0.411477 68.0986C0.435859 67.9402 0.47243 67.7238 0.521193 67.4495C0.57605 67.1752 0.612622 66.9801 0.630908 66.8643C0.947864 64.9931 1.12768 63.4144 1.17034 62.1283C1.24349 59.9766 1.01186 57.8433 0.475478 55.7282C0.158522 54.4787 0.0701406 53.3815 0.210332 52.4368C0.362715 51.4067 0.819862 50.5015 1.58177 49.7213C2.16692 49.1179 2.85874 48.6333 3.65722 48.2676C4.45571 47.9019 5.36391 47.594 6.38182 47.3441C7.79593 47.0028 9.47824 46.7255 11.4287 46.5121C13.7267 46.2683 16.3233 46.1159 19.2185 46.055C21.2422 43.8972 22.7386 42.2881 23.7077 41.2275C26.8407 37.7958 29.4099 34.7695 31.4152 32.1486C33.9813 28.79 36.0781 25.523 37.7056 22.3473C37.8153 22.134 37.9799 22.0669 38.1993 22.1462C38.248 22.1584 38.2846 22.1705 38.309 22.1827C38.3943 22.2193 38.4797 22.2864 38.565 22.3839C38.8515 22.6886 38.9612 23.2159 38.8942 23.9656C38.8454 24.569 38.6686 25.4346 38.3639 26.5622C38.1383 27.379 37.8579 28.2933 37.5227 29.3051C37.1936 30.3108 36.9284 31.091 36.7273 31.6457C36.5322 32.1943 36.2092 33.0903 35.7581 34.3337ZM15.4973 50.0504C16.113 49.3861 17.073 48.356 18.3774 46.9601C15.4699 47.0455 12.9434 47.2161 10.7979 47.4721C8.98147 47.6916 7.3906 47.9841 6.02525 48.3499C3.81875 48.9472 2.33759 49.8828 1.58177 51.1567C1.35625 51.5347 1.19777 51.9369 1.10634 52.3636C1.01491 52.7903 0.990531 53.2352 1.0332 53.6985C1.07586 54.1617 1.13377 54.5823 1.20691 54.9602C1.28006 55.3381 1.37758 55.7892 1.49949 56.3134C1.62749 56.8376 1.71587 57.2551 1.76463 57.566C2.0694 59.4494 2.14254 61.3847 1.98406 63.3717C1.91092 64.2677 1.70978 65.7093 1.38063 67.6963C1.32577 68.0133 1.28006 68.3394 1.24349 68.6746C2.93188 65.5965 5.09267 62.3843 7.72584 59.038C9.75557 56.4536 12.3461 53.4577 15.4973 50.0504ZM30.5466 46.0458C30.9855 44.7902 31.3177 43.8515 31.5432 43.2298C31.9577 42.0778 32.5672 40.4168 33.3718 38.2469C34.1825 36.0709 34.7676 34.4831 35.1273 33.4834C35.56 32.3009 35.8709 31.4415 36.0598 30.9051C36.2549 30.3687 36.5078 29.616 36.8187 28.6468C37.1357 27.6716 37.3978 26.7908 37.605 26.0045C37.7513 25.4193 37.8519 24.9805 37.9067 24.6879C37.9128 24.6513 37.9189 24.6026 37.925 24.5416C37.9372 24.4807 37.9463 24.4319 37.9524 24.3953C37.9585 24.3831 37.9616 24.3618 37.9616 24.3313C37.9616 24.3009 37.9646 24.2795 37.9707 24.2673C37.9707 24.2612 37.9738 24.2551 37.9799 24.249V24.2399V24.2216C38.0042 24.0022 38.0195 23.8376 38.0256 23.7279V23.6365C38.0012 23.6852 37.9616 23.7584 37.9067 23.8559C37.8579 23.9534 37.8183 24.0266 37.7879 24.0753C36.1056 27.1474 33.9356 30.3748 31.2781 33.7577C29.2483 36.3421 26.6578 39.338 23.5066 42.7452C22.1534 44.2081 21.1355 45.3022 20.4528 46.0276C21.6597 46.0093 22.8696 46.0001 24.0826 46.0001C24.7957 46.0001 26.9504 46.0154 30.5466 46.0458ZM41.4633 55.1796C41.4633 55.1857 41.4603 55.1949 41.4542 55.2071C41.4542 55.2254 41.4542 55.2375 41.4542 55.2436C41.442 55.3838 41.442 55.524 41.4542 55.6642C41.4725 55.9324 41.5517 56.1275 41.6919 56.2494C41.8321 56.3774 42.0241 56.3865 42.2679 56.2768C42.3349 56.2463 42.402 56.2097 42.469 56.1671C42.5422 56.1244 42.6001 56.0848 42.6428 56.0482C42.6915 56.0177 42.7525 55.969 42.8256 55.9019C42.9049 55.8349 42.9597 55.7861 42.9902 55.7556C43.0207 55.7252 43.0786 55.6673 43.1639 55.5819C43.2492 55.5027 43.3011 55.4539 43.3193 55.4356C44.5018 54.2958 45.8154 52.8299 47.2599 51.0379C48.607 49.38 49.7377 47.8318 50.652 46.3933C50.7495 46.2409 50.8836 46.1738 51.0543 46.1921C51.2249 46.2043 51.3468 46.2744 51.42 46.4024C51.4992 46.5304 51.4992 46.6767 51.42 46.8413C51.3225 46.9876 51.0787 47.3533 50.6886 47.9384C49.6036 49.5171 48.3236 51.1781 46.8485 52.9213C46.0927 53.8112 45.4039 54.5793 44.7822 55.2254C44.7334 55.2802 44.6298 55.3899 44.4713 55.5545C44.3129 55.7252 44.194 55.8471 44.1148 55.9202C44.0416 55.9995 43.9289 56.1092 43.7765 56.2494C43.6302 56.3957 43.5052 56.5084 43.4016 56.5877C43.298 56.6669 43.1731 56.7522 43.0268 56.8437C42.8805 56.9412 42.7403 57.0204 42.6062 57.0814C42.0515 57.3252 41.573 57.2978 41.1707 56.9991C40.8172 56.7431 40.6191 56.3164 40.5765 55.7191C40.5521 55.4082 40.5825 55.0455 40.6679 54.6311C40.7898 54.0642 41.0245 53.2566 41.3719 52.2082C41.8595 50.7331 42.6245 48.615 43.6668 45.8538C43.6119 45.799 43.5723 45.7441 43.5479 45.6893C43.4565 45.4576 43.3041 45.2534 43.0908 45.0767C42.658 45.7837 42.2405 46.4268 41.8382 47.0058C41.2469 47.8348 40.7441 48.4657 40.3296 48.8984C39.8603 49.38 39.4275 49.7 39.0313 49.8584C38.8119 49.9499 38.5833 49.9804 38.3456 49.9499C38.1018 49.9133 37.8976 49.8066 37.733 49.6299C37.1905 49.063 37.3124 48.1243 38.0987 46.8138C38.4461 46.2348 38.8484 45.7106 39.3056 45.2413C39.7688 44.7719 40.2717 44.4062 40.8142 44.1441C41.4115 43.8576 41.9662 43.7601 42.4782 43.8515C42.6001 43.8759 42.6915 43.8972 42.7525 43.9155C43.6851 42.3368 44.7456 40.3437 45.9342 37.936C47.519 34.7299 49.1525 31.1581 50.8348 27.2205C50.8592 27.1717 50.8775 27.1382 50.8897 27.1199C50.9567 26.9615 51.0726 26.87 51.2371 26.8456C51.4017 26.8152 51.5419 26.8548 51.6577 26.9645C51.7735 27.0742 51.8009 27.2114 51.74 27.3759C51.6669 27.5771 51.5785 27.8117 51.4748 28.0799C51.0421 29.238 50.0638 31.7706 48.54 35.6777C46.8089 40.109 45.6264 43.1597 44.9925 44.8298C43.7125 48.2066 42.789 50.7545 42.2222 52.4733C41.8626 53.5644 41.6309 54.3476 41.5273 54.8231C41.509 54.9023 41.4877 55.0212 41.4633 55.1796ZM38.4553 49.0813C38.4675 49.0874 38.4919 49.0904 38.5284 49.0904L38.5467 49.0813H38.4553ZM38.5376 49.0904L38.5467 49.0813C38.5467 49.0874 38.5437 49.0904 38.5376 49.0904ZM42.0668 45.0493C42.1155 44.9761 42.1826 44.8664 42.2679 44.7201C42.1094 44.7018 41.9631 44.7049 41.829 44.7293C41.3719 44.8146 40.8843 45.0706 40.3662 45.4973C39.2507 46.442 38.5772 47.4295 38.3456 48.4596C38.3029 48.6363 38.2938 48.7826 38.3181 48.8984C38.3303 48.9472 38.3395 48.9777 38.3456 48.9899C38.3456 48.996 38.3578 49.0051 38.3821 49.0173C38.4004 49.0295 38.4187 49.0447 38.437 49.063C38.4309 49.0691 38.4309 49.0722 38.437 49.0722H38.4461L38.4553 49.0813C38.4675 49.0813 38.4827 49.0813 38.501 49.0813C38.5254 49.0813 38.5467 49.0813 38.565 49.0813L38.5833 49.0722C38.6077 49.0661 38.6595 49.0508 38.7387 49.0264H38.7479L38.8759 48.9624C38.9368 48.9259 39.0222 48.871 39.1319 48.7979L39.1593 48.7704L39.1684 48.7613C39.1806 48.7552 39.1898 48.7491 39.1959 48.743C39.2081 48.7308 39.2263 48.7156 39.2507 48.6973C39.2812 48.6729 39.3025 48.6546 39.3147 48.6424C39.6683 48.3316 40.0248 47.9506 40.3845 47.4996C40.7502 47.0485 41.0275 46.6767 41.2165 46.3841C41.4115 46.0916 41.6949 45.6466 42.0668 45.0493ZM43.5479 44.327C43.7369 44.4732 43.9045 44.6409 44.0508 44.8298C44.0812 44.7567 44.1239 44.65 44.1788 44.5098C44.2336 44.3635 44.2733 44.2538 44.2976 44.1807C44.6694 43.2054 45.2333 41.7426 45.9891 39.7921C45.9647 39.8408 45.9281 39.917 45.8794 40.0206C45.8306 40.1243 45.791 40.2035 45.7605 40.2583C44.9315 41.8797 44.194 43.2359 43.5479 44.327ZM48.7685 55.1796V55.2436C48.7563 55.3838 48.7563 55.524 48.7685 55.6642C48.7868 55.9324 48.8661 56.1275 49.0063 56.2494C49.1403 56.3774 49.3293 56.3865 49.5731 56.2768C49.628 56.2524 49.6828 56.225 49.7377 56.1945C49.7925 56.164 49.8505 56.1244 49.9114 56.0757C49.9724 56.033 50.0211 55.9964 50.0577 55.9659C50.0943 55.9416 50.1491 55.8958 50.2223 55.8288C50.2893 55.7678 50.332 55.7282 50.3503 55.7099C50.3686 55.6916 50.4173 55.6429 50.4966 55.5636C50.5758 55.4844 50.6215 55.4417 50.6337 55.4356C51.8162 54.2958 53.1297 52.8299 54.5743 51.0379C55.9214 49.38 57.052 47.8318 57.9663 46.3933C58.0212 46.3018 58.0943 46.2409 58.1858 46.2104C58.2833 46.1799 58.3717 46.1799 58.4509 46.2104C58.5363 46.2348 58.6124 46.2775 58.6795 46.3384C58.7465 46.3994 58.7862 46.4756 58.7984 46.567C58.8105 46.6523 58.7892 46.7437 58.7344 46.8413C58.6368 46.9876 58.393 47.3533 58.0029 47.9384C56.9423 49.4805 55.6593 51.1415 54.1537 52.9213C53.3979 53.8112 52.7091 54.5793 52.0874 55.2254C52.0509 55.2619 51.9259 55.393 51.7126 55.6185C51.5053 55.844 51.359 55.9964 51.2737 56.0757C51.1945 56.1549 51.0665 56.2737 50.8897 56.4322C50.7129 56.5968 50.5484 56.7278 50.396 56.8254C50.2436 56.9229 50.0851 57.0082 49.9205 57.0814C49.3659 57.3252 48.8874 57.2978 48.4851 56.9991C48.1255 56.737 47.9243 56.3103 47.8817 55.7191C47.8573 55.4265 47.8908 55.0638 47.9822 54.6311C48.1041 54.0642 48.3388 53.2566 48.6862 52.2082C49.2836 50.404 50.2588 47.7281 51.612 44.1807C52.508 41.8279 53.7332 38.6675 55.2875 34.6994C56.8174 30.7619 57.7865 28.2415 58.1949 27.1382C58.2559 26.9736 58.3686 26.8761 58.5332 26.8456C58.7039 26.8152 58.8471 26.8548 58.9629 26.9645C59.0787 27.0742 59.1062 27.2114 59.0452 27.3759C58.9355 27.6929 58.8502 27.9276 58.7892 28.0799C58.3564 29.238 57.3781 31.7706 55.8543 35.6777C54.1233 40.109 52.9408 43.1597 52.3069 44.8298C50.9781 48.3285 50.0516 50.8764 49.5274 52.4733C49.1861 53.5095 48.9575 54.2928 48.8417 54.8231C48.8051 54.9815 48.7807 55.1004 48.7685 55.1796ZM81.6466 46.3293C81.8172 46.2744 81.9574 46.3049 82.0672 46.4207C82.1769 46.5365 82.2165 46.6797 82.186 46.8504C82.1555 47.015 82.055 47.1247 81.8843 47.1796C80.8786 47.5148 80.0892 47.7739 79.5163 47.9567C78.9494 48.1396 78.2241 48.3438 77.3403 48.5693C76.4625 48.7948 75.6519 48.9655 74.9082 49.0813C74.896 49.0813 74.7863 49.0996 74.5791 49.1362C74.3718 49.1666 74.2469 49.1849 74.2042 49.191C74.1616 49.191 74.0457 49.2032 73.8568 49.2276C73.6678 49.252 73.5398 49.2642 73.4728 49.2642C73.4057 49.2581 73.2899 49.2581 73.1254 49.2642C72.9608 49.2642 72.8328 49.255 72.7413 49.2367C72.656 49.2184 72.5463 49.1971 72.4122 49.1727C72.2842 49.1483 72.1653 49.1148 72.0556 49.0722C71.952 49.0234 71.8514 48.9685 71.7539 48.9076C71.571 48.7857 71.4095 48.6333 71.2693 48.4504C71.0682 48.9929 70.9097 49.4927 70.7939 49.9499C70.7451 50.1205 70.6415 50.2242 70.483 50.2607C70.3246 50.2912 70.1813 50.2516 70.0533 50.1419C69.9314 50.0261 69.8948 49.8828 69.9436 49.7122C70.0107 49.4501 70.0929 49.1666 70.1905 48.8619C70.2941 48.551 70.3825 48.292 70.4556 48.0847C70.5348 47.8775 70.6415 47.591 70.7756 47.2253C70.9158 46.8535 71.0133 46.5914 71.0682 46.439C72.0678 43.6839 73.3874 40.17 75.0271 35.8972C74.4115 37.1345 73.8598 38.2103 73.3722 39.1246C72.8846 40.0511 72.4853 40.7947 72.1745 41.3555C71.8636 41.9102 71.4613 42.5776 70.9676 43.3578C70.48 44.1319 69.9954 44.8176 69.5139 45.415C69.2701 45.7197 69.0354 45.991 68.8099 46.2287C68.5904 46.4603 68.3344 46.698 68.0419 46.9418C67.7554 47.1796 67.4445 47.3685 67.1093 47.5087C66.7801 47.6489 66.4449 47.7312 66.1036 47.7556C65.7561 47.7799 65.3721 47.719 64.9516 47.5727C64.3786 47.3777 63.9489 47.2801 63.6624 47.2801C63.3393 47.2801 62.931 47.3472 62.4372 47.4813C62.1812 47.5544 61.7668 47.6916 61.1938 47.8927C60.6269 48.0939 60.1881 48.234 59.8772 48.3133C59.6395 48.3742 59.4475 48.4169 59.3012 48.4413C59.1549 48.4657 58.9568 48.4901 58.7069 48.5144C58.457 48.5327 58.2467 48.5022 58.0761 48.423C57.8993 48.3438 57.7652 48.2188 57.6738 48.0481C57.6189 47.9445 57.5884 47.8379 57.5823 47.7281C57.5762 47.6184 57.5945 47.5057 57.6372 47.3898C57.6738 47.2679 57.7134 47.1674 57.7561 47.0881C57.7926 47.0028 57.8475 46.8992 57.9206 46.7773C58.1096 46.4664 58.3503 46.1159 58.6429 45.7258C59.3439 44.8054 60.0205 44.1624 60.6727 43.7967C60.9287 43.6565 61.1908 43.5559 61.4589 43.495C61.7271 43.4279 62.0045 43.4157 62.291 43.4584C62.5774 43.501 62.8304 43.6108 63.0498 43.7875C63.379 44.0496 63.5557 44.391 63.5801 44.8115C63.6045 45.226 63.4795 45.5887 63.2053 45.8995C63.0894 46.0397 62.9523 46.0855 62.7938 46.0367C62.6414 45.9818 62.5439 45.8813 62.5012 45.735C62.4586 45.5826 62.486 45.4302 62.5835 45.2778C62.7054 45.1254 62.739 44.9578 62.6841 44.775C62.6292 44.586 62.5134 44.455 62.3367 44.3818C61.9831 44.2355 61.5778 44.2934 61.1207 44.5555C60.4685 44.9213 59.8193 45.5613 59.1732 46.4756C58.9782 46.7559 58.838 46.9693 58.7526 47.1156L58.5606 47.4447L58.5332 47.5087C58.521 47.5514 58.5088 47.5819 58.4966 47.6001C58.5149 47.6001 58.5454 47.6032 58.5881 47.6093C58.6307 47.6154 58.6582 47.6184 58.6703 47.6184C58.7252 47.6184 58.8014 47.6123 58.8989 47.6001C59.0879 47.5819 59.3165 47.5422 59.5846 47.4813C59.9016 47.402 60.3405 47.2618 60.9012 47.0607C61.4681 46.8596 61.8643 46.7255 62.0898 46.6584C62.9371 46.4024 63.6868 46.3354 64.339 46.4573C64.4914 46.4817 64.7016 46.5426 64.9698 46.6401C65.2441 46.7377 65.4422 46.8017 65.5641 46.8321L65.7013 46.8596C65.7074 46.8596 65.7287 46.8626 65.7653 46.8687C65.8018 46.8687 65.8232 46.8687 65.8293 46.8687C66.2316 46.887 66.643 46.7712 67.0636 46.5213C67.4415 46.2957 67.8224 45.9818 68.2064 45.5795C68.5904 45.1773 68.9044 44.8085 69.1482 44.4732C69.392 44.138 69.6785 43.7174 70.0076 43.2115C71.0072 41.6694 72.2202 39.4964 73.6465 36.6926C74.1707 35.6625 75.6976 32.563 78.2271 27.3942C78.2942 27.2601 78.3917 27.187 78.5197 27.1748C78.6538 27.1565 78.7666 27.19 78.858 27.2754C78.9921 27.3119 79.0896 27.3912 79.1506 27.5131C79.2115 27.635 79.2115 27.7721 79.1506 27.9245C79.0408 28.1439 78.8885 28.4944 78.6934 28.9759C78.5045 29.4331 78.2271 30.1188 77.8614 31.0331C76.813 33.6846 75.3898 37.3997 73.5916 42.1784C73.5246 42.3673 73.3113 42.9403 72.9516 43.8972C72.5981 44.8481 72.3269 45.5795 72.1379 46.0916C72.2232 46.0428 72.3512 45.9757 72.5219 45.8904C72.6926 45.799 72.8206 45.7319 72.9059 45.6893C72.973 45.6527 73.1101 45.5765 73.3174 45.4607C73.5246 45.3449 73.7014 45.2534 73.8476 45.1864C73.9939 45.1133 74.1372 45.0493 74.2774 44.9944C74.4907 44.903 74.7254 44.8755 74.9814 44.9121C75.2374 44.9426 75.4477 45.0462 75.6122 45.223C75.7768 45.4058 75.8652 45.61 75.8774 45.8355C75.8957 46.055 75.8286 46.2622 75.6762 46.4573C75.597 46.5426 75.4903 46.5853 75.3562 46.5853C75.2282 46.5792 75.1246 46.5365 75.0454 46.4573C74.8869 46.2988 74.8747 46.1098 75.0088 45.8904L74.9814 45.8447V45.8355C74.9753 45.8355 74.9692 45.8325 74.9631 45.8264C74.957 45.8203 74.9448 45.8112 74.9265 45.799C74.9204 45.799 74.9113 45.7959 74.8991 45.7898H74.9174C74.9113 45.7898 74.9021 45.7898 74.8899 45.7898C74.8838 45.7837 74.8777 45.7807 74.8717 45.7807C74.8107 45.7807 74.7497 45.7868 74.6888 45.799C74.6339 45.8051 74.573 45.8234 74.5059 45.8538C74.445 45.8782 74.3962 45.8995 74.3596 45.9178C74.3231 45.9361 74.2621 45.9666 74.1768 46.0093C74.0976 46.0519 74.0488 46.0794 74.0305 46.0916C73.805 46.2074 73.4636 46.3872 73.0065 46.631C72.5554 46.8687 72.2141 47.0485 71.9825 47.1704C71.9703 47.1765 71.9551 47.1826 71.9368 47.1887C71.9246 47.1948 71.9154 47.1978 71.9093 47.1978C71.757 47.4478 71.7874 47.7068 72.0008 47.975C72.2019 48.2249 72.5707 48.356 73.1071 48.3681C73.7593 48.3803 74.6918 48.2584 75.9048 48.0024C77.1604 47.7464 79.0744 47.1887 81.6466 46.3293ZM94.3827 46.3201C94.5168 46.2043 94.6661 46.1769 94.8307 46.2378C94.9953 46.2988 95.0959 46.4024 95.1324 46.5487C95.169 46.6889 95.1263 46.823 95.0044 46.951C94.1206 47.6946 93.1118 48.1304 91.9781 48.2584C91.0029 48.3681 90.119 48.1518 89.3267 47.6093C89.2657 47.5666 89.1377 47.4752 88.9427 47.335C88.7476 47.1948 88.583 47.082 88.4489 46.9967C88.3209 46.9053 88.1868 46.826 88.0466 46.759C87.5773 46.5274 87.0714 46.4786 86.5289 46.6127C86.1815 46.698 85.8219 46.8535 85.45 47.079C85.0782 47.2984 84.7918 47.4904 84.5906 47.655C84.3956 47.8135 84.0969 48.0664 83.6946 48.4139C83.1887 48.8527 82.7285 49.2154 82.314 49.5019C81.8995 49.7823 81.4576 50.0047 80.9883 50.1693C80.8298 50.2303 80.6896 50.1967 80.5677 50.0687C80.4458 49.9346 80.4062 49.7884 80.4489 49.6299C80.5159 49.3678 80.6012 49.0843 80.7049 48.7796C80.8085 48.4748 80.903 48.2158 80.9883 48.0024C81.0675 47.7891 81.1803 47.5057 81.3266 47.1521C81.4668 46.7925 81.5673 46.5304 81.6283 46.3658C82.7254 43.501 84.2066 39.7738 86.0718 35.184C86.852 33.2701 87.5407 31.5939 88.1381 30.1554C88.7415 28.7047 89.1408 27.7843 89.3358 27.3942C89.4333 27.2418 89.5552 27.1687 89.7015 27.1748C89.8478 27.1748 89.9697 27.2479 90.0672 27.3942C90.1648 27.5344 90.1739 27.6837 90.0947 27.8422C89.9728 28.086 89.8478 28.3542 89.7198 28.6468C89.5918 28.9333 89.4851 29.1771 89.3998 29.3782C89.3145 29.5794 89.2017 29.8537 89.0615 30.2011C88.9213 30.5485 88.8177 30.8045 88.7507 30.9691C87.3487 34.3337 85.8462 38.0458 84.2432 42.1052C83.3533 44.3483 82.695 46.0336 82.2683 47.1613C82.2134 47.3076 82.1068 47.5819 81.9483 47.9841C81.7898 48.3803 81.671 48.6912 81.5917 48.9167C81.8233 48.7765 82.0458 48.6241 82.2592 48.4596C82.4786 48.2889 82.7559 48.0573 83.0912 47.7647C83.4325 47.466 83.6397 47.2862 83.7129 47.2253C84.743 46.3658 85.6817 45.8599 86.5289 45.7075C87.0348 45.6161 87.5133 45.6466 87.9644 45.799C88.4154 45.9453 88.8787 46.1952 89.3541 46.5487C89.8844 46.9388 90.2806 47.1765 90.5427 47.2618C90.9206 47.3898 91.3472 47.4325 91.8227 47.3898C92.7735 47.3167 93.6269 46.9601 94.3827 46.3201ZM106.022 46.2287C106.186 46.1556 106.339 46.1708 106.479 46.2744C106.625 46.378 106.698 46.503 106.698 46.6493C106.698 46.7895 106.622 46.9053 106.47 46.9967C104.574 47.8135 102.962 48.0512 101.633 47.7099C101.517 47.6794 101.322 47.6184 101.048 47.527C100.78 47.4295 100.572 47.3655 100.426 47.335C100.109 47.2679 99.7557 47.2649 99.3656 47.3258C99.1888 47.3563 98.9968 47.402 98.7896 47.463C98.5824 47.5179 98.4147 47.5666 98.2867 47.6093C98.1648 47.6459 97.9698 47.7159 97.7016 47.8196C97.4395 47.9171 97.2719 47.978 97.1987 48.0024C96.2235 48.356 95.4707 48.5236 94.9404 48.5053C94.532 48.4931 94.2425 48.3499 94.0718 48.0756C93.8951 47.8013 93.8859 47.4782 94.0444 47.1064C94.3431 46.4055 94.7759 45.7167 95.3427 45.0401C95.9827 44.2721 96.6014 43.7875 97.1987 43.5864C97.5279 43.4523 97.8936 43.4218 98.2959 43.495C98.7043 43.5681 99.0273 43.7418 99.265 44.0161C99.4845 44.2721 99.6094 44.5708 99.6399 44.9121C99.6765 45.2474 99.5942 45.5552 99.393 45.8355C99.2894 45.9757 99.1492 46.0367 98.9725 46.0184C98.7957 46.0001 98.6707 45.93 98.5976 45.8081C98.5306 45.6801 98.5427 45.5399 98.6342 45.3875C98.8292 45.1254 98.8262 44.8847 98.625 44.6653C98.43 44.4458 98.1801 44.3422 97.8753 44.3544C97.5584 44.3666 97.2658 44.4702 96.9976 44.6653C96.7294 44.8603 96.4551 45.1163 96.1747 45.4333C95.7359 45.927 95.361 46.4664 95.0501 47.0516C94.9221 47.2832 94.8459 47.4478 94.8216 47.5453C94.8155 47.5697 94.8124 47.591 94.8124 47.6093C94.8307 47.6154 94.8612 47.6184 94.9039 47.6184C95.2574 47.594 95.5286 47.5636 95.7176 47.527C96.0772 47.4478 96.638 47.2679 97.3999 46.9876C98.1618 46.7072 98.7591 46.5335 99.1919 46.4664C99.8502 46.3689 100.448 46.4024 100.984 46.567C101.063 46.5914 101.182 46.631 101.34 46.6858C101.499 46.7346 101.624 46.7742 101.715 46.8047C101.813 46.8291 101.929 46.8565 102.063 46.887C102.197 46.9175 102.325 46.9357 102.447 46.9418C103.562 47.015 104.754 46.7773 106.022 46.2287Z" fill="#F8F8F5"/>
</svg>
